<svg width="139" height="21" viewBox="0 0 139 21" fill="none" xmlns="http://www.w3.org/2000/svg">
<g clip-path="url(#clip0_12899_105688)">
<path d="M75.2447 11.9835H70.244C70.2891 12.6047 70.4422 13.1702 70.6855 13.708C71.2351 14.8855 72.2803 15.3305 73.5057 15.21C74.3346 15.1265 75.0735 14.802 75.7672 14.3477C75.8213 14.3106 75.8844 14.2735 75.9474 14.2457C75.9655 14.2457 75.9835 14.2457 76.0375 14.2457C76.0105 14.3384 76.0015 14.4219 75.9655 14.4961C75.2446 16.0444 74.0733 16.9715 72.4155 17.2404C71.1721 17.4351 70.0097 17.1941 68.9465 16.5172C67.8473 15.8219 67.1805 14.7927 66.9283 13.4947C66.694 12.2802 66.721 11.0841 67.2076 9.93446C67.9554 8.15433 69.361 7.31989 71.1811 7.13446C72.028 7.05102 72.866 7.11592 73.6679 7.44969C74.9383 7.97817 75.6771 8.98877 76.0105 10.3146C76.0556 10.5093 76.1006 10.704 76.1276 10.908C76.2177 11.4643 75.7943 11.9742 75.2447 11.9742V11.9835ZM70.1899 11.5013C71.154 11.2788 72.0911 11.0749 73.0191 10.8523C73.0732 10.8431 73.1453 10.7411 73.1453 10.6947C73.1183 10.0457 73.0822 9.38744 72.8209 8.77552C72.6047 8.2934 72.2803 7.95963 71.7307 7.95035C71.1811 7.94108 70.8026 8.23777 70.5684 8.72916C70.1539 9.60069 70.1539 10.5278 70.1899 11.5013Z" fill="#FF4E00"/>
<path d="M80.8943 8.13105C80.8943 8.25158 80.8763 8.32576 80.8763 8.39066C80.8763 10.2264 80.8763 12.0622 80.8943 13.8979C80.8943 14.7509 81.3538 15.2145 82.1828 15.1774C82.5071 15.1681 82.8315 15.0569 83.1559 14.9827C83.2369 14.9642 83.318 14.9178 83.4622 14.8622C83.3721 15.0847 83.318 15.2516 83.2369 15.4185C82.4711 17.0132 80.9123 17.7085 79.3896 17.1337C78.5246 16.8092 78.0741 16.1138 77.8849 15.233C77.7948 14.8158 77.7678 14.3801 77.7588 13.9443C77.7497 12.1549 77.7588 10.3562 77.7588 8.56681V8.16814H76.3712C76.3712 7.89927 76.3622 7.66748 76.3712 7.43569C76.3712 7.36152 76.4433 7.2688 76.5063 7.23172C78.1552 6.41582 79.5608 5.27542 80.7411 3.84761C80.7591 3.82907 80.7862 3.8198 80.8583 3.77344V7.23172H83.3991V8.14033H80.8853L80.8943 8.13105Z" fill="#FF4E00"/>
<path d="M3.83129 17.0865H0.542576C0.23623 17.0865 0.0109761 16.7898 0.0920676 16.4838C0.146129 16.2706 0.19118 16.0573 0.22722 15.8533C0.326332 15.2507 0.452475 14.6388 0.461485 14.0361C0.488515 11.3474 0.479505 8.64937 0.470495 5.96063C0.470495 5.08911 0.272271 4.2454 0.0289964 3.41096C-0.043085 3.1699 0.119098 2.92884 0.353363 2.90103C2.08332 2.70633 3.58802 4.09706 3.58802 5.88646V8.78845C3.78624 8.55666 3.92139 8.39904 4.07457 8.24143C5.15579 7.14739 6.42622 6.8507 7.85884 7.33282C8.98511 7.71295 9.72394 8.81626 9.75098 10.1235C9.769 11.1434 9.77801 12.1633 9.75098 13.1739C9.72394 14.1937 10.0934 16.1315 10.2285 16.8269C10.2555 16.9659 10.1564 17.0865 10.0213 17.0865H6.75059C6.42622 17.0865 6.18295 16.7712 6.26404 16.4467C6.3181 16.2057 6.37216 15.9739 6.41721 15.7328C6.50731 15.1951 6.61543 14.6573 6.63346 14.1196C6.6695 12.9884 6.65148 11.8573 6.63346 10.7355C6.63346 9.92885 6.28206 9.38183 5.64234 9.19639C4.98459 9.00169 4.34487 9.11295 3.73218 9.42818C3.66911 9.46527 3.60604 9.5858 3.60604 9.66924C3.62406 11.4216 3.62406 13.1739 3.70515 14.9262C3.72317 15.3898 3.94842 16.3169 4.06556 16.799C4.1016 16.9474 3.99347 17.0957 3.8403 17.0957L3.83129 17.0865Z" fill="#FF4E00"/>
<path d="M20.8791 15.549C21.0503 15.5026 21.2125 15.6602 21.1765 15.8364C21.0413 16.4298 20.5187 16.9582 19.8429 17.1622C18.6446 17.5145 17.7346 17.051 17.0318 15.753C16.8065 15.994 16.5903 16.2629 16.347 16.4854C14.9955 17.6907 12.3104 17.6165 11.3824 15.5119C10.6075 13.7503 11.4184 11.8775 13.2655 11.2284C14.4278 10.8205 15.5811 10.9318 16.7344 11.2748C16.7795 11.2841 16.8245 11.3026 16.9056 11.3304C16.8876 10.4033 16.9777 9.50394 16.7434 8.63242C16.5903 8.06686 16.3019 7.89997 15.7703 8.12249C15.2027 8.36355 14.6531 8.65096 14.1395 9.00328C13.7431 9.27216 13.1123 9.75428 12.6168 10.1344C12.3194 10.3662 11.905 10.1437 11.905 9.76355V8.91057C11.905 8.25229 12.3555 7.68673 12.9862 7.54765C13.3196 7.47348 13.662 7.40858 14.0044 7.36222C14.9324 7.24169 15.8785 7.16752 16.8155 7.14898C17.248 7.13971 17.6985 7.25096 18.104 7.39931C19.2573 7.80726 19.897 8.68805 19.9871 9.92116C20.0592 10.9503 20.0322 11.998 20.0412 13.0364C20.0412 13.5741 20.0412 14.1026 20.0592 14.6404C20.0592 14.8073 20.1042 14.9834 20.1493 15.1503C20.2484 15.4655 20.5728 15.651 20.8791 15.5582V15.549ZM16.8876 11.9053C16.4912 11.9053 16.1217 11.8867 15.7523 11.9238C15.1847 11.9702 14.6801 12.3503 14.4819 12.8973C14.2386 13.5834 14.2837 14.251 14.6441 14.8351C15.1216 15.6139 16.1848 15.7808 16.8516 15.1503C16.8786 15.1225 16.9056 15.0669 16.9056 15.0298C16.9146 14.1119 16.9056 13.194 16.9056 12.2761C16.9056 12.1649 16.9056 12.0629 16.8876 11.9053Z" fill="#FF4E00"/>
<path d="M52.0499 7.24365H50.2209C50.0407 7.24365 49.9055 7.41053 49.9325 7.59596C50.0497 8.22643 50.2209 9.54298 49.9145 10.2198C49.6893 10.7205 49.5 11.2397 49.2928 11.7496C49.0585 12.343 48.8153 12.9364 48.563 13.5576C48.5179 13.4834 48.4819 13.4463 48.4639 13.3999C47.9503 12.2503 47.4277 11.1006 46.9231 9.94166C46.6979 9.43173 46.6258 8.86616 46.7249 8.31914C46.7609 8.13371 46.797 7.95755 46.842 7.77212C46.9051 7.50325 46.6979 7.23438 46.4276 7.23438H43.8146C43.0307 7.23438 42.5442 8.1059 42.9406 8.80126C43.0307 8.96815 43.1208 9.12577 43.1749 9.2463C44.4363 11.935 45.6617 14.6423 46.8961 17.3496C46.9231 17.4145 46.9502 17.5165 46.9231 17.5721C46.779 17.8966 46.6528 18.2489 46.4456 18.5364C46.1663 18.935 45.7698 19.0741 45.2833 18.9907C44.7607 18.898 44.3372 18.6198 43.9318 18.2953C43.7245 18.1284 43.5353 17.9523 43.3461 17.7761C43.2199 17.6648 43.0307 17.6834 42.9316 17.8132C42.8776 17.8781 42.8235 17.9523 42.7784 18.0264C42.5532 18.3417 42.346 18.6754 42.2198 19.0463C42.0937 19.4172 42.0396 19.8158 42.2288 20.1682C42.3279 20.3536 42.4721 20.4927 42.6523 20.5854C42.8325 20.6781 43.0488 20.7337 43.256 20.7893C43.9408 20.9655 44.6616 21.086 45.3554 20.8821C45.5716 20.8172 45.7788 20.7244 45.9771 20.6039C46.6258 20.2052 47.0313 19.584 47.3196 18.8887C48.2296 16.7006 49.1216 14.494 50.0136 12.2966C50.5813 10.9059 51.8066 8.40259 52.2301 7.54034C52.3022 7.40126 52.1941 7.23438 52.0499 7.23438V7.24365Z" fill="#FF4E00"/>
<path d="M22.4104 7.28694L24.726 7.01807C24.9964 6.99025 25.2306 7.2035 25.2306 7.48164V8.4737C25.2306 8.4737 25.3027 8.52933 25.3387 8.54787C25.3568 8.49224 25.3658 8.42734 25.3928 8.38098C26.8975 6.53595 29.6456 6.71211 30.916 8.75184C31.6459 9.92005 31.808 11.2273 31.736 12.581C31.6639 13.777 31.3665 14.8989 30.6187 15.8631C29.2492 17.6061 26.8524 17.7823 25.3838 16.2061C25.3568 16.1783 25.3297 16.1598 25.2847 16.1227C25.2847 16.9479 25.2216 17.7545 25.3027 18.5611L25.3568 19.1174C25.4559 20.1095 24.699 20.9624 23.7349 20.9624H21.9509C21.7707 20.9624 21.6356 20.7863 21.6806 20.6008C21.7797 20.23 21.8698 19.8499 21.9329 19.4697C22.023 18.9134 22.1131 18.3571 22.1131 17.7916C22.1311 15.3532 22.1131 12.9148 22.1221 10.4763C22.1221 9.92005 21.9149 8.94654 21.7437 8.24191C21.6356 7.77833 21.9419 7.32403 22.4014 7.2684L22.4104 7.28694ZM25.2396 12.3585C25.2396 13.2578 25.2396 14.1479 25.2396 15.0472C25.2396 15.1492 25.2847 15.3068 25.3568 15.3532C25.7262 15.5942 26.1316 15.7333 26.5821 15.6869C27.384 15.6035 27.8075 15.0565 28.0418 14.3426C28.4472 13.1002 28.4743 11.8393 28.195 10.5598C28.1679 10.4393 28.1319 10.328 28.0959 10.2167C27.6273 8.94654 26.5461 8.57568 25.4288 9.3174C25.3297 9.38231 25.2396 9.54919 25.2396 9.66972C25.2216 10.5691 25.2396 11.4591 25.2396 12.3585Z" fill="#FF4E00"/>
<path d="M33.2112 7.28694L35.5268 7.01807C35.7971 6.99025 36.0314 7.2035 36.0314 7.48164V8.4737C36.0314 8.4737 36.1035 8.52933 36.1395 8.54787C36.1575 8.49224 36.1665 8.42734 36.1936 8.38098C37.6983 6.53595 40.4464 6.71211 41.7168 8.75184C42.4466 9.92005 42.6088 11.2273 42.5367 12.581C42.4647 13.777 42.1673 14.8989 41.4195 15.8631C40.0499 17.6061 37.6532 17.7823 36.1846 16.2061C36.1575 16.1783 36.1305 16.1598 36.0855 16.1227C36.0855 16.9479 36.0224 17.7545 36.1035 18.5611L36.1575 19.1174C36.2567 20.1095 35.4998 20.9624 34.5357 20.9624H32.7517C32.5715 20.9624 32.4363 20.7863 32.4814 20.6008C32.5805 20.23 32.6706 19.8499 32.7337 19.4697C32.8238 18.9134 32.9139 18.3571 32.9139 17.7916C32.9319 15.3532 32.9139 12.9148 32.9229 10.4763C32.9229 9.92005 32.7157 8.94654 32.5445 8.24191C32.4363 7.77833 32.7427 7.32403 33.2022 7.2684L33.2112 7.28694ZM36.0404 12.3585C36.0404 13.2578 36.0404 14.1479 36.0404 15.0472C36.0404 15.1492 36.0855 15.3068 36.1575 15.3532C36.527 15.5942 36.9324 15.7333 37.3829 15.6869C38.1848 15.6035 38.6083 15.0565 38.8426 14.3426C39.248 13.1002 39.2751 11.8393 38.9957 10.5598C38.9687 10.4393 38.9327 10.328 38.8966 10.2167C38.4281 8.94654 37.3469 8.57568 36.2296 9.3174C36.1305 9.38231 36.0404 9.54919 36.0404 9.66972C36.0224 10.5691 36.0404 11.4591 36.0404 12.3585Z" fill="#FF4E00"/>
<path d="M56.2893 7.28694L58.605 7.01807C58.8753 6.99025 59.1095 7.2035 59.1095 7.48164V8.4737C59.1095 8.4737 59.1816 8.52933 59.2176 8.54787C59.2357 8.49224 59.2447 8.42734 59.2717 8.38098C60.7764 6.53595 63.5245 6.71211 64.7949 8.75184C65.5248 9.92005 65.687 11.2273 65.6149 12.581C65.5428 13.777 65.2455 14.8989 64.4976 15.8631C63.1281 17.6061 60.7314 17.7823 59.2627 16.2061C59.2357 16.1783 59.2086 16.1598 59.1636 16.1227C59.1636 16.9479 59.1005 17.7545 59.1816 18.5611L59.2357 19.1174C59.3348 20.1095 58.5779 20.9624 57.6138 20.9624H55.8298C55.6496 20.9624 55.5145 20.7863 55.5595 20.6008C55.6586 20.23 55.7487 19.8499 55.8118 19.4697C55.9019 18.9134 55.992 18.3571 55.992 17.7916C56.01 15.3532 55.992 12.9148 56.001 10.4763C56.001 9.92005 55.7938 8.94654 55.6226 8.24191C55.5145 7.77833 55.8208 7.32403 56.2803 7.2684L56.2893 7.28694ZM59.1185 12.3585C59.1185 13.2578 59.1185 14.1479 59.1185 15.0472C59.1185 15.1492 59.1636 15.3068 59.2357 15.3532C59.6051 15.5942 60.0105 15.7333 60.461 15.6869C61.263 15.6035 61.6864 15.0565 61.9207 14.3426C62.3262 13.1002 62.3532 11.8393 62.0739 10.5598C62.0468 10.4393 62.0108 10.328 61.9748 10.2167C61.5062 8.94654 60.425 8.57568 59.3077 9.3174C59.2086 9.38231 59.1185 9.54919 59.1185 9.66972C59.1005 10.5691 59.1185 11.4591 59.1185 12.3585Z" fill="#FF4E00"/>
<path d="M136.425 0H91.4285C90.0053 0 88.8516 1.18719 88.8516 2.65166V17.7457C88.8516 19.2102 90.0053 20.3974 91.4285 20.3974H136.425C137.848 20.3974 139.002 19.2102 139.002 17.7457V2.65166C139.002 1.18719 137.848 0 136.425 0Z" fill="#FF4E00"/>
<path d="M96.8691 6.21876H93.3281V4.67969H102.104V6.21876H98.563V15.7499H96.8781V6.21876H96.8691Z" fill="white"/>
<path d="M103.637 4.67969H111.331V6.21876H105.295V9.25982H110.881V10.7711H105.295V14.2108H111.286V15.7499H103.637V4.67969Z" fill="white"/>
<path d="M112.574 10.2127C112.574 7.1253 114.349 4.49219 117.791 4.49219C120.35 4.49219 122.017 6.1796 122.377 8.44186H120.692C120.422 7.02331 119.35 6.04053 117.791 6.04053C115.385 6.04053 114.313 7.95047 114.313 10.2034C114.313 12.4564 115.385 14.3664 117.791 14.3664C119.467 14.3664 120.539 13.2167 120.764 11.6405H122.44C122.152 14.0511 120.467 15.9147 117.791 15.9147C114.358 15.9147 112.574 13.2816 112.574 10.1942V10.2127Z" fill="white"/>
<path d="M133.015 8.96021V4.69531H131.357V9.29399H131.348V9.78538C132.285 9.81319 132.717 9.4516 133.015 8.96949V8.96021Z" fill="white"/>
<path d="M134.56 8.42247C134.47 8.39465 134.371 8.37611 134.281 8.34829C134.092 8.30194 134.028 8.48737 134.028 8.48737C133.839 8.94167 133.596 9.34035 133.317 9.68339C132.073 11.241 130.433 11.2503 130.28 11.2503C128.541 11.3523 126.766 10.3973 126.063 8.40392C125.946 8.07015 125.892 7.70856 125.892 7.35624V4.69531H124.234V15.7655H125.892V11.3059C127.334 12.7337 129.505 13.1695 131.361 12.5483V15.7748H133.019V11.6211C133.812 10.9443 134.416 9.98008 134.704 8.71915C134.74 8.51518 134.605 8.45028 134.56 8.44101V8.42247Z" fill="white"/>
</g>
<defs>
<clipPath id="clip0_12899_105688">
<rect width="139" height="21" fill="white"/>
</clipPath>
</defs>
</svg>
